<?xml version="1.0" encoding="UTF-8"?>
<svg version="1.1" width="75.867" height="80" viewBox="0 0 75.867 80" xmlns="http://www.w3.org/2000/svg">
 <g transform="translate(100.02 63.89)">
  <g transform="matrix(.17245 0 0 .17245 -82.773 -52.872)">
   <circle cx="187.82" cy="96.83" r="120" fill="#fff" stroke-width="1.0417"/>
   <path d="m-75.266 398.91c-9.5126-2.2412-17.329-8.6876-21.615-17.825-2.5936-5.5306-2.6198-5.8215-2.6198-29.086s0.0262-23.556 2.6198-29.086c3.3301-7.101 8.6927-12.464 15.794-15.794l5.5865-2.6198 342.31-0.51692 2.596 3.0852c3.3558 3.9882 3.2769 6.4047-0.32707 10.009-2.8789 2.8789-3.0904 2.9231-14 2.9231h-11.077v64h10.944c9.9368 0 11.176 0.20712 13.462 2.25 4.0869 3.6518 4.3394 7.1578 0.77242 10.725l-3.0252 3.0252-168.83-0.10045c-94.332-0.0561-170.49-0.49191-172.59-0.9876zm64.017-32.803 15.251-6.0988 39.497 15.783 0.27071-19.896 0.2707-19.896h8.4322c9.4377 0 12.787-1.0821 14.416-4.6573 1.6951-3.7203 1.3682-5.2386-1.8128-8.4196l-2.9231-2.9231h-57.53c-40.627 0-58.258 0.33192-60.009 1.1297-3.5193 1.6035-5.1954 6.054-3.6684 9.7406 1.6613 4.0107 4.8464 5.1297 14.601 5.1297h8.4529v39.971l4.75-1.8817c2.6125-1.0349 11.613-4.6261 20.001-7.9805zm-88.512-229.84 0.26097-175.77 2.6198-5.5865c3.3301-7.101 8.6927-12.464 15.794-15.794l5.5865-2.6198 157.96-0.25921c174.03-0.28557 161.98-0.69669 171.88 5.8629 9.7144 6.4345 13.885 16.76 13.442 33.278l-0.28508 10.628-4.9142-3.4966c-6.9701-4.9594-22.763-12.845-31.626-15.79-14.709-4.8883-23.183-6.1282-41.96-6.1385-15.42-0.0085-18.819 0.30217-28.597 2.6136-28.345 6.7004-51.736 19.96-71.515 40.539-10.2 10.612-16.642 19.651-22.995 32.263-9.1308 18.126-12.761 32.87-13.54 55-1.0677 30.322 5.4607 54.528 21.198 78.597 7.1462 10.929 25.919 30.032 36.465 37.106 15.234 10.218 35.853 18.967 54.012 22.917 12.915 2.8093 39.119 2.6258 52.482-0.36762 14.618-3.2745 31.113-10.004 41.707-17.014l3.8514-2.5487 5.9331 5.6842v80.598l-345.6 0.52777-7.5768 3.7448c-4.4176 2.1834-9.0912 5.421-11.209 7.765l-3.632 4.0202zm67.077 134.57c1.2013-0.63984 2.7324-1.8773 3.4025-2.75 1.6744-2.1808 1.7796-44.284 0.11846-47.402-2.8178-5.2906-8.0751-6.1731-12.2-2.0479l-2.6364 2.6364 0.0318 22.614c0.03307 23.512 0.18907 24.452 4.4682 26.906 2.5694 1.4736 4.1136 1.4836 6.8157 0.0445zm0-80c1.2013-0.63984 2.7324-1.8773 3.4025-2.75 1.7237-2.245 1.8393-228.17 0.11846-231.4-2.8178-5.2906-8.0751-6.1731-12.2-2.0479l-2.6364 2.6364 0.0318 114.61c0.0335 120.73-0.13432 116.27 4.4682 118.91 2.5694 1.4736 4.1136 1.4836 6.8157 0.0445zm344.68 55.57c-2.0432-0.88445-12.943-10.923-26.187-24.119l-22.687-22.604-6.313 4.1003c-12.663 8.2249-27.051 14.22-42.975 17.906-5.5097 1.2754-11.822 1.6877-25.338 1.6549-16.743-0.0407-18.803-0.25458-29.507-3.0639-26.446-6.9411-46.961-18.912-64.917-37.881-25.4-26.833-37.351-62.669-33.148-99.399 3.5644-31.151 16.14-57.033 38.236-78.69 25.157-24.658 59.646-37.654 95.336-35.925 19.379 0.93898 33.375 4.5088 49.787 12.698 12.877 6.4256 21.507 12.684 32.268 23.402 18.996 18.92 30.938 41.054 36.57 67.781 2.9079 13.799 3.165 36.508 0.5517 48.734-3.405 15.929-10.071 32.094-18.421 44.67l-3.5883 5.4044 22.984 23.213c18.899 19.087 23.194 23.945 24.166 27.329 1.6323 5.685 1.4511 9.2074-0.71407 13.884-4.7305 10.217-16.417 15.1-26.104 10.907zm-102.5-57.285c22.559-5.1215 41.101-16.616 53.708-33.294 7.3197-9.6834 10.227-14.901 13.909-24.964 4.264-11.653 5.9804-21.533 5.9699-34.364-0.03754-46.023-27.337-81.801-71.087-93.167-9.1483-2.3767-12.367-2.723-25-2.69-11.524 0.03005-16.07 0.46729-22.146 2.1301-34.918 9.5545-60.498 35.11-70.067 70.003-3.0407 11.087-3.0511 35.325-0.0199 46.37 10.004 36.451 37.747 62.981 74.233 70.986 10.726 2.3534 27.529 1.934 40.5-1.0108zm-57.179-38.31c-3.0332-1.4664-4.6679-5.7691-3.4295-9.0265 2.181-5.7364 2.5093-5.7848 39.275-5.7848h33.722l2.7224 2.3417c3.7356 3.2132 3.7356 8.1033 0 11.317l-2.7224 2.3417-33.694-0.0677c-21.415-0.043-34.488-0.45157-35.873-1.121zm0-32c-3.0332-1.4664-4.6679-5.7691-3.4295-9.0265 2.181-5.7364 2.5093-5.7848 39.275-5.7848h33.722l2.7224 2.3417c3.7356 3.2132 3.7356 8.1033 0 11.317l-2.7224 2.3417-33.694-0.0677c-21.415-0.043-34.488-0.45157-35.873-1.121zm0-32c-3.0332-1.4664-4.6679-5.7691-3.4295-9.0265 2.181-5.7364 2.5093-5.7848 39.275-5.7848h33.722l2.7224 2.3417c3.7356 3.2132 3.7356 8.1033 0 11.317l-2.7224 2.3417-33.694-0.0677c-21.415-0.043-34.488-0.45157-35.873-1.121zm-1.3981-33.734c-1.6077-1.6077-2.9231-3.8923-2.9231-5.0769s1.3154-3.4692 2.9231-5.0769l2.9231-2.9231h34.021c33.868 0 34.032 0.0101 36.539 2.25 4.0869 3.6518 4.3394 7.1578 0.77242 10.725l-3.0252 3.0252h-68.308z" fill="#008000"/>
  </g>
 </g>
</svg>
